<svg xmlns="http://www.w3.org/2000/svg" xmlns:xlink="http://www.w3.org/1999/xlink" width="1600" zoomAndPan="magnify" viewBox="0 0 1200 457.91998" height="600" preserveAspectRatio="xMidYMid meet" version="1.0"><defs><g/><clipPath id="1dabb6e881"><path d="M 42 0 L 1160 0 L 1160 449.921875 L 42 449.921875 Z M 42 0 " clip-rule="nonzero"/></clipPath><clipPath id="4a14827540"><rect x="0" width="1118" y="0" height="450"/></clipPath></defs><g clip-path="url(#1dabb6e881)"><g transform="matrix(1, 0, 0, 1, 42, 0)"><g clip-path="url(#4a14827540)"><g fill="#ffffff" fill-opacity="1"><g transform="translate(0.83357, 317.750796)"><g><path d="M 19.515625 -175.609375 C 19.515625 -187.890625 21.617188 -198.425781 25.828125 -207.21875 C 30.046875 -216.007812 35.769531 -223.234375 43 -228.890625 C 50.226562 -234.554688 58.71875 -238.710938 68.46875 -241.359375 C 78.226562 -244.015625 88.648438 -245.34375 99.734375 -245.34375 C 117.554688 -245.34375 130.679688 -242.992188 139.109375 -238.296875 C 147.546875 -233.597656 151.765625 -225.585938 151.765625 -214.265625 C 151.765625 -209.453125 150.738281 -205.117188 148.6875 -201.265625 C 146.632812 -197.410156 144.40625 -194.519531 142 -192.59375 C 137.425781 -193.789062 132.671875 -194.8125 127.734375 -195.65625 C 122.796875 -196.5 117.070312 -196.921875 110.5625 -196.921875 C 100.207031 -196.921875 92.140625 -195.175781 86.359375 -191.6875 C 80.578125 -188.195312 77.6875 -182.113281 77.6875 -173.4375 L 77.6875 -161.875 L 136.9375 -161.875 C 138.382812 -159.226562 139.769531 -155.914062 141.09375 -151.9375 C 142.425781 -147.96875 143.09375 -143.570312 143.09375 -138.75 C 143.09375 -130.320312 141.222656 -124.238281 137.484375 -120.5 C 133.753906 -116.769531 128.753906 -114.90625 122.484375 -114.90625 L 80.9375 -114.90625 L 80.9375 -0.359375 C 78.53125 0.355469 74.734375 1.078125 69.546875 1.796875 C 64.367188 2.523438 59.015625 2.890625 53.484375 2.890625 C 48.179688 2.890625 43.421875 2.523438 39.203125 1.796875 C 34.984375 1.078125 31.425781 -0.363281 28.53125 -2.53125 C 25.644531 -4.695312 23.421875 -7.644531 21.859375 -11.375 C 20.296875 -15.113281 19.515625 -19.992188 19.515625 -26.015625 Z M 19.515625 -175.609375 "/></g></g></g><g fill="#ffffff" fill-opacity="1"><g transform="translate(152.584108, 317.750796)"><g><path d="M 18.796875 -173.078125 C 21.203125 -173.796875 24.992188 -174.515625 30.171875 -175.234375 C 35.347656 -175.960938 40.707031 -176.328125 46.25 -176.328125 C 51.550781 -176.328125 56.304688 -175.960938 60.515625 -175.234375 C 64.734375 -174.515625 68.285156 -173.070312 71.171875 -170.90625 C 74.066406 -168.738281 76.296875 -165.785156 77.859375 -162.046875 C 79.429688 -158.316406 80.21875 -153.441406 80.21875 -147.421875 L 80.21875 -69.734375 C 80.21875 -59.859375 82.625 -52.8125 87.4375 -48.59375 C 92.257812 -44.382812 99.25 -42.28125 108.40625 -42.28125 C 113.9375 -42.28125 118.445312 -42.757812 121.9375 -43.71875 C 125.4375 -44.6875 128.148438 -45.648438 130.078125 -46.609375 L 130.078125 -173.078125 C 132.484375 -173.796875 136.273438 -174.515625 141.453125 -175.234375 C 146.640625 -175.960938 152.003906 -176.328125 157.546875 -176.328125 C 162.835938 -176.328125 167.59375 -175.960938 171.8125 -175.234375 C 176.03125 -174.515625 179.582031 -173.070312 182.46875 -170.90625 C 185.363281 -168.738281 187.59375 -165.785156 189.15625 -162.046875 C 190.71875 -158.316406 191.5 -153.441406 191.5 -147.421875 L 191.5 -37.578125 C 191.5 -25.535156 186.441406 -16.503906 176.328125 -10.484375 C 167.898438 -5.179688 157.84375 -1.144531 146.15625 1.625 C 134.476562 4.394531 121.769531 5.78125 108.03125 5.78125 C 95.03125 5.78125 83.046875 4.332031 72.078125 1.4375 C 61.117188 -1.445312 51.664062 -5.898438 43.71875 -11.921875 C 35.769531 -17.941406 29.628906 -25.707031 25.296875 -35.21875 C 20.960938 -44.738281 18.796875 -56.242188 18.796875 -69.734375 Z M 18.796875 -173.078125 "/></g></g></g><g fill="#ffffff" fill-opacity="1"><g transform="translate(362.867077, 317.750796)"><g><path d="M 111.65625 5.78125 C 97.4375 5.78125 84.242188 3.796875 72.078125 -0.171875 C 59.921875 -4.148438 49.320312 -10.113281 40.28125 -18.0625 C 31.25 -26.007812 24.144531 -36.003906 18.96875 -48.046875 C 13.789062 -60.097656 11.203125 -74.191406 11.203125 -90.328125 C 11.203125 -106.234375 13.789062 -119.90625 18.96875 -131.34375 C 24.144531 -142.78125 30.945312 -152.171875 39.375 -159.515625 C 47.8125 -166.867188 57.445312 -172.289062 68.28125 -175.78125 C 79.125 -179.28125 90.207031 -181.03125 101.53125 -181.03125 C 114.300781 -181.03125 125.925781 -179.101562 136.40625 -175.25 C 146.882812 -171.394531 155.914062 -166.09375 163.5 -159.34375 C 171.09375 -152.601562 176.992188 -144.535156 181.203125 -135.140625 C 185.421875 -125.742188 187.53125 -115.503906 187.53125 -104.421875 C 187.53125 -96.234375 185.238281 -89.96875 180.65625 -85.625 C 176.082031 -81.289062 169.703125 -78.523438 161.515625 -77.328125 L 72.265625 -63.953125 C 74.910156 -56.003906 80.328125 -50.039062 88.515625 -46.0625 C 96.710938 -42.09375 106.109375 -40.109375 116.703125 -40.109375 C 126.585938 -40.109375 135.925781 -41.375 144.71875 -43.90625 C 153.507812 -46.4375 160.675781 -49.382812 166.21875 -52.75 C 170.070312 -50.34375 173.320312 -46.972656 175.96875 -42.640625 C 178.613281 -38.304688 179.9375 -33.726562 179.9375 -28.90625 C 179.9375 -18.0625 174.878906 -9.992188 164.765625 -4.703125 C 157.054688 -0.597656 148.382812 2.171875 138.75 3.609375 C 129.113281 5.054688 120.082031 5.78125 111.65625 5.78125 Z M 101.53125 -136.21875 C 95.75 -136.21875 90.75 -135.253906 86.53125 -133.328125 C 82.320312 -131.398438 78.890625 -128.929688 76.234375 -125.921875 C 73.585938 -122.910156 71.601562 -119.535156 70.28125 -115.796875 C 68.957031 -112.066406 68.175781 -108.273438 67.9375 -104.421875 L 129.71875 -114.546875 C 129 -119.359375 126.347656 -124.171875 121.765625 -128.984375 C 117.191406 -133.804688 110.445312 -136.21875 101.53125 -136.21875 Z M 101.53125 -136.21875 "/></g></g></g><g fill="#ffffff" fill-opacity="1"><g transform="translate(559.781499, 317.750796)"><g><path d="M 136.21875 -4.703125 C 132.84375 -2.046875 127.90625 0.125 121.40625 1.8125 C 114.90625 3.5 107.554688 4.34375 99.359375 4.34375 C 89.972656 4.34375 81.84375 3.132812 74.96875 0.71875 C 68.101562 -1.683594 63.347656 -5.539062 60.703125 -10.84375 C 58.535156 -14.9375 55.945312 -20.65625 52.9375 -28 C 49.925781 -35.351562 46.734375 -43.546875 43.359375 -52.578125 C 39.984375 -61.609375 36.488281 -71.300781 32.875 -81.65625 C 29.269531 -92.019531 25.835938 -102.257812 22.578125 -112.375 C 19.328125 -122.488281 16.375 -132.242188 13.71875 -141.640625 C 11.070312 -151.035156 8.910156 -159.347656 7.234375 -166.578125 C 10.597656 -169.941406 15.109375 -172.890625 20.765625 -175.421875 C 26.429688 -177.953125 32.640625 -179.21875 39.390625 -179.21875 C 47.816406 -179.21875 54.738281 -177.46875 60.15625 -173.96875 C 65.582031 -170.476562 69.617188 -163.914062 72.265625 -154.28125 L 86.359375 -99 C 89.003906 -88.164062 91.53125 -78.351562 93.9375 -69.5625 C 96.351562 -60.769531 98.160156 -53.960938 99.359375 -49.140625 L 101.171875 -49.140625 C 105.742188 -66.960938 110.5625 -86.710938 115.625 -108.390625 C 120.6875 -130.078125 125.265625 -151.398438 129.359375 -172.359375 C 133.453125 -174.523438 138.085938 -176.207031 143.265625 -177.40625 C 148.441406 -178.613281 153.441406 -179.21875 158.265625 -179.21875 C 166.691406 -179.21875 173.796875 -177.410156 179.578125 -173.796875 C 185.359375 -170.179688 188.25 -163.921875 188.25 -155.015625 C 188.25 -151.160156 187.34375 -145.554688 185.53125 -138.203125 C 183.726562 -130.859375 181.441406 -122.546875 178.671875 -113.265625 C 175.898438 -103.992188 172.648438 -94.179688 168.921875 -83.828125 C 165.191406 -73.472656 161.398438 -63.351562 157.546875 -53.46875 C 153.691406 -43.59375 149.894531 -34.378906 146.15625 -25.828125 C 142.425781 -17.285156 139.113281 -10.242188 136.21875 -4.703125 Z M 136.21875 -4.703125 "/></g></g></g><g fill="#ffffff" fill-opacity="1"><g transform="translate(754.889368, 317.750796)"><g><path d="M 200.53125 -87.796875 C 200.53125 -72.867188 198.242188 -59.5625 193.671875 -47.875 C 189.097656 -36.195312 182.65625 -26.378906 174.34375 -18.421875 C 166.03125 -10.472656 156.09375 -4.453125 144.53125 -0.359375 C 132.96875 3.730469 120.082031 5.78125 105.875 5.78125 C 91.65625 5.78125 78.765625 3.613281 67.203125 -0.71875 C 55.640625 -5.0625 45.703125 -11.265625 37.390625 -19.328125 C 29.085938 -27.398438 22.644531 -37.21875 18.0625 -48.78125 C 13.488281 -60.34375 11.203125 -73.347656 11.203125 -87.796875 C 11.203125 -102.015625 13.488281 -114.90625 18.0625 -126.46875 C 22.644531 -138.03125 29.085938 -147.84375 37.390625 -155.90625 C 45.703125 -163.976562 55.640625 -170.179688 67.203125 -174.515625 C 78.765625 -178.859375 91.65625 -181.03125 105.875 -181.03125 C 120.082031 -181.03125 132.96875 -178.800781 144.53125 -174.34375 C 156.09375 -169.882812 166.03125 -163.617188 174.34375 -155.546875 C 182.65625 -147.484375 189.097656 -137.671875 193.671875 -126.109375 C 198.242188 -114.546875 200.53125 -101.773438 200.53125 -87.796875 Z M 74.078125 -87.796875 C 74.078125 -73.109375 76.90625 -61.847656 82.5625 -54.015625 C 88.226562 -46.191406 96.117188 -42.28125 106.234375 -42.28125 C 116.347656 -42.28125 124.113281 -46.253906 129.53125 -54.203125 C 134.957031 -62.148438 137.671875 -73.347656 137.671875 -87.796875 C 137.671875 -102.253906 134.898438 -113.394531 129.359375 -121.21875 C 123.816406 -129.050781 115.988281 -132.96875 105.875 -132.96875 C 95.75 -132.96875 87.914062 -129.050781 82.375 -121.21875 C 76.84375 -113.394531 74.078125 -102.253906 74.078125 -87.796875 Z M 74.078125 -87.796875 "/></g></g></g><g fill="#ffffff" fill-opacity="1"><g transform="translate(966.617645, 317.750796)"><g><path d="M 80.21875 -0.359375 C 77.8125 0.355469 74.015625 1.078125 68.828125 1.796875 C 63.648438 2.523438 58.289062 2.890625 52.75 2.890625 C 47.457031 2.890625 42.703125 2.523438 38.484375 1.796875 C 34.265625 1.078125 30.707031 -0.363281 27.8125 -2.53125 C 24.925781 -4.695312 22.703125 -7.644531 21.140625 -11.375 C 19.578125 -15.113281 18.796875 -19.992188 18.796875 -26.015625 L 18.796875 -134.421875 C 18.796875 -139.953125 19.816406 -144.707031 21.859375 -148.6875 C 23.910156 -152.664062 26.863281 -156.21875 30.71875 -159.34375 C 34.570312 -162.476562 39.328125 -165.304688 44.984375 -167.828125 C 50.648438 -170.359375 56.734375 -172.585938 63.234375 -174.515625 C 69.734375 -176.441406 76.476562 -177.945312 83.46875 -179.03125 C 90.457031 -180.125 97.441406 -180.671875 104.421875 -180.671875 C 115.984375 -180.671875 125.132812 -178.441406 131.875 -173.984375 C 138.625 -169.523438 142 -162.238281 142 -152.125 C 142 -148.75 141.515625 -145.4375 140.546875 -142.1875 C 139.585938 -138.9375 138.382812 -135.984375 136.9375 -133.328125 C 131.882812 -133.328125 126.707031 -133.085938 121.40625 -132.609375 C 116.101562 -132.128906 110.921875 -131.40625 105.859375 -130.4375 C 100.804688 -129.476562 96.050781 -128.457031 91.59375 -127.375 C 87.132812 -126.289062 83.34375 -125.023438 80.21875 -123.578125 Z M 80.21875 -0.359375 "/></g></g></g></g></g></g></svg>
